<?xml version="1.0" encoding="UTF-8"?>
<svg xmlns="http://www.w3.org/2000/svg" xmlns:xlink="http://www.w3.org/1999/xlink" width="130px" height="51px" viewBox="0 0 129 51" version="1.1">
<g id="surface1">
<path style=" stroke:none;fill-rule:nonzero;fill:rgb(51.372552%,23.529412%,53.333336%);fill-opacity:1;" d="M 22.699219 16.878906 C 25.082031 18.15625 26.558594 19.71875 27.5625 22.253906 C 27.683594 24.402344 27.683594 24.402344 27.5625 26.152344 C 25.457031 26.152344 23.359375 26.152344 21.195312 26.152344 C 20.773438 25.078125 20.355469 24.007812 19.921875 22.898438 C 18.992188 22.777344 18.066406 22.65625 17.136719 22.535156 C 16.617188 22.46875 16.101562 22.398438 15.566406 22.332031 C 14.15625 22.132812 14.15625 22.132812 12.914062 22.898438 C 12.914062 23.757812 12.914062 24.617188 12.914062 25.5 C 13.707031 25.75 14.496094 26.003906 15.3125 26.261719 C 16.355469 26.605469 17.40625 26.941406 18.449219 27.289062 C 18.96875 27.453125 19.492188 27.613281 20.027344 27.785156 C 23.007812 28.765625 25.226562 29.761719 27.5625 31.996094 C 27.746094 31.652344 27.933594 31.304688 28.125 30.953125 C 29.875 27.875 31.363281 25.839844 34.566406 24.203125 C 38.007812 23.292969 40.847656 23.539062 44.121094 24.847656 C 46.546875 26.464844 47.257812 27.347656 48.582031 30.046875 C 48.792969 26.191406 48.996094 22.332031 49.21875 18.355469 C 51.316406 18.355469 53.417969 18.355469 55.585938 18.355469 C 55.585938 20.070312 55.585938 21.789062 55.585938 23.550781 C 56.152344 23.539062 56.152344 23.539062 56.730469 23.527344 C 58.472656 23.503906 60.214844 23.484375 61.953125 23.472656 C 62.550781 23.457031 63.148438 23.445312 63.753906 23.433594 C 72.257812 23.378906 72.257812 23.378906 75.359375 25.925781 C 75.65625 26.320312 75.941406 26.714844 76.238281 27.121094 C 76.542969 27.515625 76.84375 27.914062 77.15625 28.320312 C 77.875 29.394531 77.875 29.394531 78.511719 30.695312 C 78.71875 28.554688 78.933594 26.414062 79.148438 24.203125 C 81.035156 24.203125 82.933594 24.203125 84.878906 24.203125 C 85.191406 25.167969 85.191406 25.167969 85.515625 26.152344 C 85.824219 25.828125 86.128906 25.511719 86.441406 25.179688 C 88.816406 23.746094 90.9375 23.988281 93.632812 24.078125 C 95.371094 24.121094 97.101562 24.164062 98.886719 24.203125 C 99.097656 28.058594 99.3125 31.914062 99.527344 35.890625 C 101.101562 34.605469 101.101562 34.605469 102.710938 33.292969 C 104.972656 32.753906 104.972656 32.753906 107.367188 32.484375 C 108.167969 32.382812 108.960938 32.285156 109.785156 32.191406 C 110.394531 32.125 111.003906 32.058594 111.625 31.996094 C 111.625 30.917969 111.625 29.851562 111.625 28.746094 C 110.808594 28.8125 110 28.878906 109.15625 28.953125 C 108.699219 28.988281 108.242188 29.023438 107.769531 29.0625 C 106.277344 29.3125 106.277344 29.3125 105.253906 31.347656 C 103.875 31.539062 103.875 31.539062 102.316406 31.464844 C 101.53125 31.441406 101.53125 31.441406 100.738281 31.414062 C 100.136719 31.378906 100.136719 31.378906 99.527344 31.347656 C 99.707031 29.277344 99.96875 27.769531 101.039062 25.984375 C 104.515625 23.625 108.796875 23.191406 112.859375 23.957031 C 115.238281 24.511719 116.457031 25.523438 117.992188 27.449219 C 118.34375 29.410156 118.34375 29.410156 118.386719 31.683594 C 118.402344 32.496094 118.425781 33.304688 118.441406 34.140625 C 118.453125 34.988281 118.464844 35.835938 118.472656 36.703125 C 118.488281 37.5625 118.511719 38.414062 118.53125 39.296875 C 118.578125 41.410156 118.609375 43.523438 118.628906 45.636719 C 117.703125 45.667969 116.773438 45.695312 115.84375 45.714844 C 115.328125 45.734375 114.8125 45.746094 114.277344 45.761719 C 112.898438 45.636719 112.898438 45.636719 111.625 44.339844 C 110.996094 44.761719 110.363281 45.195312 109.714844 45.636719 C 106.515625 46.023438 103.617188 46.070312 100.679688 44.65625 C 100.300781 44.34375 99.917969 44.019531 99.527344 43.6875 C 99.316406 44.328125 99.105469 44.972656 98.886719 45.636719 C 96.789062 45.636719 94.6875 45.636719 92.519531 45.636719 C 92.519531 40.488281 92.519531 35.347656 92.519531 30.046875 C 87.734375 30.117188 87.734375 30.117188 86.152344 31.996094 C 85.59375 33.742188 85.410156 35.429688 85.316406 37.265625 C 85.285156 37.753906 85.261719 38.242188 85.230469 38.75 C 85.207031 39.253906 85.183594 39.757812 85.160156 40.273438 C 85.117188 41.050781 85.117188 41.050781 85.074219 41.839844 C 85.003906 43.105469 84.945312 44.367188 84.878906 45.636719 C 82.984375 45.636719 81.097656 45.636719 79.148438 45.636719 C 79.148438 42.636719 79.148438 39.628906 79.148438 36.539062 C 74.316406 36.539062 69.480469 36.539062 64.5 36.539062 C 65.992188 39.871094 65.992188 39.871094 68.277344 40.441406 C 70.222656 40.644531 70.222656 40.644531 71.386719 39.503906 C 73.578125 37.910156 75.902344 38.335938 78.511719 38.492188 C 77.625 41.375 76.242188 42.972656 74.050781 44.984375 C 72.351562 45.855469 70.980469 45.765625 69.078125 45.796875 C 68.417969 45.8125 67.753906 45.832031 67.074219 45.84375 C 64.035156 45.515625 62.054688 44.007812 60.042969 41.738281 C 59.832031 43.023438 59.621094 44.304688 59.402344 45.636719 C 53.816406 45.933594 53.816406 45.933594 51.125 44.902344 C 49.507812 43.355469 49.09375 41.960938 48.582031 39.789062 C 48.238281 40.394531 47.894531 40.992188 47.546875 41.617188 C 45.800781 44.003906 44.976562 44.726562 42.214844 45.636719 C 38.613281 46.042969 35.617188 46.171875 32.335938 44.5 C 30.910156 43.183594 29.507812 41.878906 28.199219 40.441406 C 27.585938 41.34375 27.585938 41.34375 26.964844 42.261719 C 24.578125 45.167969 21.550781 45.972656 17.960938 46.46875 C 13.769531 46.667969 10.421875 45.480469 7.265625 42.753906 C 4.984375 39.949219 4.640625 39.007812 4.640625 35.242188 C 6.945312 35.242188 9.261719 35.242188 11.644531 35.242188 C 11.824219 35.871094 12.011719 36.503906 12.199219 37.148438 C 12.6875 39.210938 12.6875 39.210938 14.191406 39.789062 C 15.144531 39.851562 16.101562 39.871094 17.058594 39.867188 C 17.5625 39.871094 18.070312 39.871094 18.585938 39.875 C 19.953125 39.875 19.953125 39.875 21.195312 39.136719 C 21.195312 38.070312 21.195312 36.996094 21.195312 35.890625 C 20.40625 35.636719 19.617188 35.386719 18.800781 35.132812 C 17.75 34.789062 16.707031 34.449219 15.660156 34.105469 C 15.140625 33.941406 14.621094 33.777344 14.085938 33.605469 C 11.113281 32.628906 8.835938 31.660156 6.546875 29.394531 C 5.367188 26.988281 5.621094 24.230469 5.910156 21.605469 C 9.164062 15.613281 16.769531 15.015625 22.699219 16.878906 Z M 35.722656 29.761719 C 34.179688 31.878906 33.972656 33.265625 33.929688 35.890625 C 34.3125 37.777344 34.808594 38.734375 35.84375 40.441406 C 37.648438 41.414062 37.648438 41.414062 39.664062 41.085938 C 41.617188 39.792969 42.632812 38.800781 43.15625 36.433594 C 43.320312 33.605469 43.089844 32.335938 41.414062 30.007812 C 39.234375 28.441406 37.957031 28.128906 35.722656 29.761719 Z M 55.585938 28.746094 C 55.585938 32.601562 55.585938 36.460938 55.585938 40.441406 C 56.847656 40.441406 58.105469 40.441406 59.402344 40.441406 C 59.347656 39.972656 59.28125 39.515625 59.222656 39.035156 C 58.789062 35.207031 58.703125 32.363281 60.042969 28.746094 C 58.570312 28.746094 57.101562 28.746094 55.585938 28.746094 Z M 65.492188 30.007812 C 65.167969 30.449219 64.84375 30.890625 64.5 31.347656 C 64.707031 31.777344 64.921875 32.199219 65.136719 32.644531 C 68.605469 32.324219 68.605469 32.324219 72.140625 31.996094 C 71.933594 31.140625 71.722656 30.28125 71.503906 29.394531 C 68.28125 28.515625 68.28125 28.515625 65.492188 30.007812 Z M 105.894531 37.191406 C 104.824219 38.398438 104.824219 38.398438 104.621094 39.789062 C 104.832031 40.21875 105.042969 40.648438 105.253906 41.085938 C 107.808594 41.207031 107.808594 41.207031 110.351562 41.085938 C 111.847656 39.855469 111.847656 39.855469 111.707031 37.761719 C 111.675781 37.140625 111.65625 36.527344 111.625 35.890625 C 109.6875 35.890625 107.695312 36.503906 105.894531 37.191406 Z M 105.894531 37.191406 "/>
<path style=" stroke:none;fill-rule:nonzero;fill:rgb(56.862748%,32.156864%,58.431375%);fill-opacity:1;" d="M 116.796875 25.921875 C 118.363281 27.921875 118.335938 29.140625 118.386719 31.683594 C 118.402344 32.496094 118.425781 33.304688 118.441406 34.140625 C 118.453125 34.988281 118.464844 35.835938 118.472656 36.703125 C 118.488281 37.5625 118.511719 38.414062 118.53125 39.296875 C 118.578125 41.410156 118.609375 43.523438 118.628906 45.636719 C 117.703125 45.667969 116.773438 45.695312 115.84375 45.714844 C 115.328125 45.734375 114.8125 45.746094 114.277344 45.761719 C 112.898438 45.636719 112.898438 45.636719 111.625 44.339844 C 110.996094 44.761719 110.363281 45.195312 109.714844 45.636719 C 106.515625 46.023438 103.617188 46.070312 100.679688 44.65625 C 100.300781 44.34375 99.917969 44.019531 99.527344 43.6875 C 99.316406 44.328125 99.105469 44.972656 98.886719 45.636719 C 96.789062 45.636719 94.6875 45.636719 92.519531 45.636719 C 92.519531 40.488281 92.519531 35.347656 92.519531 30.046875 C 91.046875 30.046875 89.582031 30.046875 88.0625 30.046875 C 88.0625 29.832031 88.0625 29.617188 88.0625 29.394531 C 89.324219 29.394531 90.585938 29.394531 91.882812 29.394531 C 91.882812 27.683594 91.882812 25.96875 91.882812 24.203125 C 94.199219 24.203125 96.507812 24.203125 98.886719 24.203125 C 99.097656 28.058594 99.3125 31.914062 99.527344 35.890625 C 100.578125 35.039062 101.628906 34.179688 102.710938 33.292969 C 104.972656 32.753906 104.972656 32.753906 107.367188 32.484375 C 108.167969 32.382812 108.960938 32.285156 109.785156 32.191406 C 110.699219 32.097656 110.699219 32.097656 111.625 31.996094 C 111.625 30.917969 111.625 29.851562 111.625 28.746094 C 110.808594 28.8125 110 28.878906 109.15625 28.953125 C 108.699219 28.988281 108.242188 29.023438 107.769531 29.0625 C 106.277344 29.3125 106.277344 29.3125 105.253906 31.347656 C 103.875 31.539062 103.875 31.539062 102.316406 31.464844 C 101.792969 31.453125 101.269531 31.429688 100.738281 31.414062 C 100.335938 31.390625 99.933594 31.371094 99.527344 31.347656 C 99.710938 29.230469 99.953125 27.769531 101.121094 25.984375 C 105.492188 22.863281 112.46875 22.484375 116.796875 25.921875 Z M 105.894531 37.191406 C 104.824219 38.398438 104.824219 38.398438 104.621094 39.789062 C 104.832031 40.21875 105.042969 40.648438 105.253906 41.085938 C 107.808594 41.207031 107.808594 41.207031 110.351562 41.085938 C 111.847656 39.855469 111.847656 39.855469 111.707031 37.761719 C 111.675781 37.140625 111.65625 36.527344 111.625 35.890625 C 109.6875 35.890625 107.695312 36.503906 105.894531 37.191406 Z M 105.894531 37.191406 "/>
<path style=" stroke:none;fill-rule:nonzero;fill:rgb(55.29412%,29.803923%,57.254905%);fill-opacity:1;" d="M 49.21875 18.355469 C 51.316406 18.355469 53.417969 18.355469 55.585938 18.355469 C 55.585938 20.070312 55.585938 21.789062 55.585938 23.550781 C 59.996094 23.550781 64.410156 23.550781 68.957031 23.550781 C 68.957031 23.765625 68.957031 23.980469 68.957031 24.203125 C 64.332031 24.203125 59.714844 24.203125 54.949219 24.203125 C 54.949219 22.484375 54.949219 20.769531 54.949219 19.003906 C 53.261719 19.003906 51.585938 19.003906 49.851562 19.003906 C 49.851562 26.71875 49.851562 34.4375 49.851562 42.390625 C 49.433594 41.527344 49.011719 40.667969 48.582031 39.789062 C 48.238281 40.394531 47.894531 40.992188 47.546875 41.617188 C 45.800781 44.003906 44.976562 44.726562 42.214844 45.636719 C 38.589844 46.042969 35.605469 46.152344 32.300781 44.5 C 29.9375 42.273438 28.933594 41.277344 28.539062 37.902344 C 28.523438 36.9375 28.515625 35.96875 28.519531 35 C 28.5 34.515625 28.484375 34.039062 28.460938 33.539062 C 28.457031 30.882812 28.699219 29.242188 30.375 27.152344 C 33.097656 24.429688 35.203125 23.8125 39.027344 23.550781 C 42.410156 23.964844 44.855469 24.949219 47.304688 27.449219 C 47.722656 28.304688 48.144531 29.160156 48.582031 30.046875 C 48.792969 26.191406 48.996094 22.332031 49.21875 18.355469 Z M 35.722656 29.761719 C 34.179688 31.878906 33.972656 33.265625 33.929688 35.890625 C 34.3125 37.777344 34.808594 38.734375 35.84375 40.441406 C 37.648438 41.414062 37.648438 41.414062 39.664062 41.085938 C 41.617188 39.792969 42.632812 38.800781 43.15625 36.433594 C 43.320312 33.605469 43.089844 32.335938 41.414062 30.007812 C 39.234375 28.441406 37.957031 28.128906 35.722656 29.761719 Z M 35.722656 29.761719 "/>
<path style=" stroke:none;fill-rule:nonzero;fill:rgb(47.058824%,16.862746%,49.411765%);fill-opacity:1;" d="M 90.171875 23.996094 C 90.738281 24.066406 91.300781 24.128906 91.882812 24.203125 C 91.882812 25.917969 91.882812 27.628906 91.882812 29.394531 C 91.199219 29.546875 90.519531 29.695312 89.816406 29.84375 C 87.050781 30.832031 86.382812 31.425781 84.878906 33.941406 C 84.496094 35.847656 84.4375 37.722656 84.402344 39.667969 C 84.382812 40.175781 84.363281 40.691406 84.34375 41.214844 C 84.296875 42.472656 84.265625 43.730469 84.242188 44.984375 C 82.769531 44.984375 81.300781 44.984375 79.78125 44.984375 C 79.78125 38.339844 79.78125 31.699219 79.78125 24.847656 C 81.253906 24.847656 82.726562 24.847656 84.242188 24.847656 C 84.449219 25.707031 84.660156 26.566406 84.878906 27.449219 C 85.324219 26.914062 85.773438 26.375 86.234375 25.824219 C 88.0625 24.203125 88.0625 24.203125 90.171875 23.996094 Z M 90.171875 23.996094 "/>
<path style=" stroke:none;fill-rule:nonzero;fill:rgb(75.294119%,67.058825%,80.392158%);fill-opacity:1;" d="M 102.269531 3.375 C 103.980469 4.0625 103.980469 4.0625 104.625 5.222656 C 104.824219 5.683594 105.019531 6.152344 105.214844 6.621094 C 106.21875 8.992188 106.21875 8.992188 108.558594 10.195312 C 109.152344 10.316406 109.746094 10.433594 110.351562 10.558594 C 110.988281 11.210938 110.988281 11.210938 111.027344 12.875 C 111.011719 13.398438 111.003906 13.921875 110.988281 14.460938 C 110.1875 14.671875 109.382812 14.886719 108.558594 15.109375 C 106.859375 15.734375 106.09375 16.03125 105.21875 17.671875 C 104.761719 19.070312 104.761719 19.070312 104.46875 20.472656 C 103.980469 21.605469 103.980469 21.605469 102.777344 22.167969 C 101.4375 22.253906 101.4375 22.253906 99.527344 20.953125 C 99.328125 19.328125 99.328125 19.328125 99.527344 17.707031 C 101.09375 16.105469 102.53125 15.785156 104.621094 15.109375 C 105.46875 14.382812 105.46875 14.382812 105.421875 12.550781 C 105.367188 11.890625 105.308594 11.234375 105.253906 10.558594 C 103.464844 9.089844 103.464844 9.089844 101.4375 9.222656 C 99.292969 9.742188 99.292969 9.742188 98.375 12.183594 C 98.125 12.933594 97.871094 13.683594 97.617188 14.460938 C 96.976562 15.109375 96.976562 15.109375 95.386719 15.1875 C 93.796875 15.109375 93.796875 15.109375 93.15625 14.460938 C 93.039062 12.875 93.039062 12.875 93.15625 11.210938 C 94.433594 9.914062 94.433594 9.914062 96.664062 9.101562 C 99.046875 8.1875 99.046875 8.1875 99.765625 5.933594 C 99.894531 5.316406 100.027344 4.703125 100.164062 4.0625 C 100.800781 3.414062 100.800781 3.414062 102.269531 3.375 Z M 102.269531 3.375 "/>
<path style=" stroke:none;fill-rule:nonzero;fill:rgb(53.333336%,27.058825%,55.686277%);fill-opacity:1;" d="M 94.433594 3.414062 C 95.496094 3.601562 96.5625 3.816406 97.617188 4.0625 C 98.011719 5.609375 98.011719 5.609375 98.25 7.3125 C 96.566406 9.03125 94.710938 9.652344 92.519531 10.558594 C 92.414062 12.457031 92.414062 12.457031 92.519531 14.460938 C 93.71875 15.960938 93.71875 15.960938 95.707031 15.917969 C 97.6875 15.960938 97.6875 15.960938 98.886719 14.460938 C 99.339844 13.171875 99.773438 11.875 100.164062 10.558594 C 101.675781 10.152344 101.675781 10.152344 103.34375 9.914062 C 104.621094 11.210938 104.621094 11.210938 104.699219 12.917969 C 104.671875 13.421875 104.648438 13.933594 104.621094 14.460938 C 103.820312 14.671875 103.015625 14.886719 102.191406 15.109375 C 100.496094 15.734375 99.726562 16.03125 98.851562 17.671875 C 98.394531 19.070312 98.394531 19.070312 98.101562 20.472656 C 97.617188 21.605469 97.617188 21.605469 96.414062 22.167969 C 95.070312 22.253906 95.070312 22.253906 93.15625 20.953125 C 93.011719 20.214844 92.871094 19.484375 92.71875 18.71875 C 92.148438 16.390625 92.148438 16.390625 90.671875 15.675781 C 89.386719 15.199219 88.117188 14.785156 86.785156 14.460938 C 86.785156 13.171875 86.785156 11.886719 86.785156 10.558594 C 87.589844 10.332031 88.390625 10.105469 89.214844 9.875 C 90.8125 9.277344 91.664062 8.941406 92.621094 7.496094 C 93.074219 6.375 93.4375 5.21875 93.796875 4.0625 C 94 3.851562 94.214844 3.636719 94.433594 3.414062 Z M 94.433594 3.414062 "/>
<path style=" stroke:none;fill-rule:nonzero;fill:rgb(45.882353%,14.901961%,48.235294%);fill-opacity:1;" d="M 93.15625 24.847656 C 94.839844 24.847656 96.519531 24.847656 98.25 24.847656 C 98.25 31.496094 98.25 38.136719 98.25 44.984375 C 96.570312 44.984375 94.890625 44.984375 93.15625 44.984375 C 93.15625 38.339844 93.15625 31.699219 93.15625 24.847656 Z M 93.15625 24.847656 "/>
<path style=" stroke:none;fill-rule:nonzero;fill:rgb(68.627453%,50.980395%,70.19608%);fill-opacity:1;" d="M 79.148438 24.203125 C 81.035156 24.203125 82.933594 24.203125 84.878906 24.203125 C 85.191406 25.808594 85.191406 25.808594 85.515625 27.449219 C 85.09375 27.660156 84.679688 27.878906 84.242188 28.101562 C 84.242188 27.023438 84.242188 25.953125 84.242188 24.847656 C 82.769531 24.847656 81.300781 24.847656 79.78125 24.847656 C 79.78125 31.496094 79.78125 38.136719 79.78125 44.984375 C 81.253906 44.984375 82.726562 44.984375 84.242188 44.984375 C 84.226562 44.203125 84.210938 43.421875 84.199219 42.617188 C 84.183594 41.59375 84.171875 40.566406 84.160156 39.542969 C 84.152344 39.03125 84.140625 38.515625 84.128906 37.984375 C 84.117188 36.632812 84.175781 35.289062 84.242188 33.941406 C 84.660156 33.515625 85.082031 33.089844 85.515625 32.644531 C 85.304688 36.929688 85.09375 41.214844 84.878906 45.636719 C 82.984375 45.636719 81.097656 45.636719 79.148438 45.636719 C 79.148438 42.636719 79.148438 39.628906 79.148438 36.539062 C 74.316406 36.539062 69.480469 36.539062 64.5 36.539062 C 64.5 36.328125 64.5 36.113281 64.5 35.890625 C 68.914062 35.890625 73.324219 35.890625 77.875 35.890625 C 77.875 34.179688 77.875 32.460938 77.875 30.695312 C 78.082031 30.695312 78.292969 30.695312 78.511719 30.695312 C 78.71875 28.554688 78.933594 26.414062 79.148438 24.203125 Z M 79.148438 24.203125 "/>
<path style=" stroke:none;fill-rule:nonzero;fill:rgb(71.764708%,62.352943%,77.64706%);fill-opacity:1;" d="M 100.800781 4.710938 C 101.636719 4.710938 102.480469 4.710938 103.34375 4.710938 C 103.34375 5.570312 103.34375 6.433594 103.34375 7.3125 C 102.714844 7.527344 102.085938 7.746094 101.4375 7.964844 C 99.609375 9.996094 98.527344 11.875 97.617188 14.460938 C 96.976562 15.109375 96.976562 15.109375 95.386719 15.1875 C 93.796875 15.109375 93.796875 15.109375 93.15625 14.460938 C 93.039062 12.875 93.039062 12.875 93.15625 11.210938 C 94.433594 9.914062 94.433594 9.914062 96.621094 9.058594 C 99.125 7.847656 99.488281 7.070312 100.800781 4.710938 Z M 100.800781 4.710938 "/>
<path style=" stroke:none;fill-rule:nonzero;fill:rgb(54.11765%,27.450982%,56.078434%);fill-opacity:1;" d="M 94.433594 3.414062 C 95.496094 3.601562 96.5625 3.816406 97.617188 4.0625 C 98.011719 5.609375 98.011719 5.609375 98.25 7.3125 C 96.976562 8.609375 96.976562 8.609375 94.710938 9.425781 C 93.988281 9.796875 93.265625 10.175781 92.519531 10.558594 C 91.847656 12.5625 91.847656 12.5625 91.882812 14.460938 C 90.613281 12.023438 90.613281 12.023438 90.613281 10.558594 C 89.765625 10.34375 88.929688 10.132812 88.0625 9.914062 C 88.65625 9.789062 89.246094 9.671875 89.855469 9.546875 C 92.101562 8.773438 92.101562 8.773438 93.039062 6.296875 C 93.289062 5.5625 93.539062 4.824219 93.796875 4.0625 C 94 3.851562 94.214844 3.636719 94.433594 3.414062 Z M 94.433594 3.414062 "/>
<path style=" stroke:none;fill-rule:nonzero;fill:rgb(46.27451%,46.27451%,46.27451%);fill-opacity:1;" d="M 121.183594 20.792969 C 123.089844 20.953125 123.089844 20.953125 124.359375 22.253906 C 124.601562 23.835938 124.601562 23.835938 124.359375 25.5 C 123.289062 26.757812 123.289062 26.757812 121.816406 27.449219 C 120.292969 27.019531 119.128906 26.65625 117.992188 25.5 C 117.875 23.917969 117.875 23.917969 117.992188 22.253906 C 119.265625 20.953125 119.265625 20.953125 121.183594 20.792969 Z M 119.265625 22.898438 C 119.90625 24.847656 119.90625 24.847656 119.90625 24.847656 Z M 122.453125 23.550781 C 123.089844 24.847656 123.089844 24.847656 123.089844 24.847656 Z M 122.453125 23.550781 "/>
<path style=" stroke:none;fill-rule:nonzero;fill:rgb(71.764708%,62.7451%,78.039217%);fill-opacity:1;" d="M 102.269531 3.375 C 103.980469 4.0625 103.980469 4.0625 104.625 5.222656 C 104.824219 5.683594 105.019531 6.152344 105.214844 6.621094 C 106.171875 8.859375 106.296875 9.152344 108.601562 10.234375 C 109.175781 10.339844 109.757812 10.453125 110.351562 10.558594 C 109.96875 10.726562 109.59375 10.882812 109.195312 11.046875 C 107.625 11.964844 106.894531 12.933594 105.894531 14.460938 C 105.761719 13.730469 105.628906 13.011719 105.5 12.269531 C 104.867188 9.738281 104.867188 9.738281 102.628906 8.976562 C 102.027344 8.855469 101.421875 8.738281 100.800781 8.609375 C 101.003906 8.1875 101.21875 7.753906 101.4375 7.3125 C 102.070312 7.3125 102.699219 7.3125 103.34375 7.3125 C 103.34375 6.453125 103.34375 5.601562 103.34375 4.710938 C 102.113281 4.894531 102.113281 4.894531 100.800781 5.363281 C 100.378906 6.003906 99.957031 6.652344 99.527344 7.3125 C 100.207031 3.433594 100.207031 3.433594 102.269531 3.375 Z M 102.269531 3.375 "/>
<path style=" stroke:none;fill-rule:nonzero;fill:rgb(55.686277%,30.588236%,57.647061%);fill-opacity:1;" d="M 86.785156 10.558594 C 88.050781 10.558594 89.3125 10.558594 90.613281 10.558594 C 91.035156 12.0625 91.453125 13.558594 91.882812 15.109375 C 90.402344 15.136719 88.910156 15.136719 87.425781 15.109375 C 86.785156 14.460938 86.785156 14.460938 86.746094 12.46875 C 86.761719 11.835938 86.777344 11.207031 86.785156 10.558594 Z M 86.785156 10.558594 "/>
<path style=" stroke:none;fill-rule:nonzero;fill:rgb(71.372551%,62.352943%,77.64706%);fill-opacity:1;" d="M 106.53125 11.210938 C 108 11.210938 109.46875 11.210938 110.988281 11.210938 C 110.988281 12.28125 110.988281 13.355469 110.988281 14.460938 C 107.328125 15.757812 107.328125 15.757812 105.894531 15.757812 C 106.101562 14.257812 106.316406 12.757812 106.53125 11.210938 Z M 106.53125 11.210938 "/>
<path style=" stroke:none;fill-rule:nonzero;fill:rgb(64.313728%,43.921569%,65.882355%);fill-opacity:1;" d="M 91.882812 14.460938 C 92.511719 14.886719 93.148438 15.316406 93.796875 15.757812 C 95.0625 16.007812 96.335938 16.230469 97.617188 16.410156 C 97.40625 16.835938 97.195312 17.265625 96.976562 17.707031 C 96.136719 17.707031 95.296875 17.707031 94.433594 17.707031 C 94.554688 18.972656 94.554688 18.972656 95.070312 20.304688 C 96.332031 21.140625 96.332031 21.140625 97.617188 21.605469 C 96.460938 22.007812 96.460938 22.007812 95.070312 22.253906 C 92.59375 20.570312 92.632812 19.261719 91.882812 16.410156 C 91.460938 15.976562 91.042969 15.546875 90.613281 15.109375 C 91.035156 14.890625 91.453125 14.679688 91.882812 14.460938 Z M 91.882812 14.460938 "/>
<path style=" stroke:none;fill-rule:nonzero;fill:rgb(72.549021%,56.862748%,73.725492%);fill-opacity:1;" d="M 71.503906 30.046875 C 71.929688 30.046875 72.347656 30.046875 72.777344 30.046875 C 72.988281 31.117188 73.199219 32.191406 73.414062 33.292969 C 70.265625 33.292969 67.105469 33.292969 63.863281 33.292969 C 64.070312 32.867188 64.28125 32.4375 64.5 31.996094 C 67.023438 31.996094 69.546875 31.996094 72.140625 31.996094 C 71.933594 31.351562 71.722656 30.710938 71.503906 30.046875 Z M 71.503906 30.046875 "/>
<path style=" stroke:none;fill-rule:nonzero;fill:rgb(50.588238%,22.352941%,52.549022%);fill-opacity:1;" d="M 98.25 16.410156 C 98.25 17.90625 98.25 19.40625 98.25 20.953125 C 97.199219 20.953125 96.148438 20.953125 95.070312 20.953125 C 94.859375 19.882812 94.648438 18.808594 94.433594 17.707031 C 97.539062 16.410156 97.539062 16.410156 98.25 16.410156 Z M 98.25 16.410156 "/>
<path style=" stroke:none;fill-rule:nonzero;fill:rgb(35.686275%,35.686275%,35.686275%);fill-opacity:1;" d="M 119.265625 20.953125 C 120.621094 21.195312 120.621094 21.195312 121.816406 21.605469 C 121.394531 21.605469 120.972656 21.605469 120.542969 21.605469 C 120.542969 22.246094 120.542969 22.886719 120.542969 23.550781 C 120.960938 23.765625 121.382812 23.980469 121.816406 24.203125 C 121.394531 24.203125 120.972656 24.203125 120.542969 24.203125 C 120.542969 25.058594 120.542969 25.917969 120.542969 26.796875 C 119.703125 26.371094 118.859375 25.941406 117.992188 25.5 C 117.914062 23.957031 117.914062 23.957031 117.992188 22.253906 C 118.414062 21.824219 118.835938 21.394531 119.265625 20.953125 Z M 119.265625 22.898438 C 119.90625 24.847656 119.90625 24.847656 119.90625 24.847656 Z M 119.265625 22.898438 "/>
<path style=" stroke:none;fill-rule:nonzero;fill:rgb(60.784316%,38.431373%,62.7451%);fill-opacity:1;" d="M 8.457031 18.355469 C 9.296875 18.570312 10.140625 18.78125 11.007812 19.003906 C 9.972656 20.113281 8.910156 21.195312 7.816406 22.253906 C 7.398438 22.253906 6.984375 22.253906 6.546875 22.253906 C 6.546875 24.179688 6.546875 26.113281 6.546875 28.101562 C 6.335938 28.101562 6.128906 28.101562 5.910156 28.101562 C 5.511719 22.242188 5.511719 22.242188 7.183594 19.574219 C 7.605469 19.171875 8.027344 18.765625 8.457031 18.355469 Z M 8.457031 18.355469 "/>
<path style=" stroke:none;fill-rule:nonzero;fill:rgb(77.64706%,70.588237%,82.352942%);fill-opacity:1;" d="M 104.621094 7.3125 C 104.972656 7.753906 104.972656 7.753906 105.339844 8.203125 C 106.878906 9.566406 108.410156 9.988281 110.351562 10.558594 C 109.78125 10.800781 109.78125 10.800781 109.195312 11.046875 C 107.625 11.964844 106.894531 12.933594 105.894531 14.460938 C 105.710938 13.730469 105.523438 13.011719 105.339844 12.269531 C 104.816406 9.910156 104.816406 9.910156 103.34375 8.609375 C 103.769531 8.609375 104.191406 8.609375 104.621094 8.609375 C 104.621094 8.1875 104.621094 7.753906 104.621094 7.3125 Z M 104.621094 7.3125 "/>
<path style=" stroke:none;fill-rule:nonzero;fill:rgb(74.117649%,65.490198%,79.607844%);fill-opacity:1;" d="M 93.15625 11.210938 C 93.578125 11.210938 93.996094 11.210938 94.433594 11.210938 C 94.433594 12.070312 94.433594 12.925781 94.433594 13.808594 C 95.269531 13.808594 96.117188 13.808594 96.976562 13.808594 C 97.1875 12.953125 97.398438 12.09375 97.617188 11.210938 C 98.011719 12.425781 98.011719 12.425781 98.25 13.808594 C 96.976562 15.109375 96.976562 15.109375 95.347656 15.226562 C 93.796875 15.109375 93.796875 15.109375 93.15625 14.460938 C 93.132812 13.375 93.132812 12.289062 93.15625 11.210938 Z M 93.15625 11.210938 "/>
<path style=" stroke:none;fill-rule:nonzero;fill:rgb(55.29412%,29.803923%,57.254905%);fill-opacity:1;" d="M 113.539062 24.203125 C 113.539062 24.628906 113.539062 25.058594 113.539062 25.5 C 110.800781 25.5 108.074219 25.5 105.253906 25.5 C 108.503906 23.292969 109.742188 23.640625 113.539062 24.203125 Z M 113.539062 24.203125 "/>
<path style=" stroke:none;fill-rule:nonzero;fill:rgb(79.607844%,73.333335%,83.92157%);fill-opacity:1;" d="M 105.253906 14.460938 C 106.089844 17.015625 105.410156 18.441406 104.621094 20.953125 C 103.34375 18.515625 103.34375 18.515625 103.34375 17.058594 C 102.292969 17.269531 101.246094 17.484375 100.164062 17.707031 C 100.800781 16.410156 100.800781 16.410156 102.710938 15.714844 C 103.652344 15.414062 103.652344 15.414062 104.621094 15.109375 C 104.832031 14.890625 105.042969 14.679688 105.253906 14.460938 Z M 105.253906 14.460938 "/>
<path style=" stroke:none;fill-rule:nonzero;fill:rgb(68.235296%,49.803922%,69.411767%);fill-opacity:1;" d="M 99.527344 11.210938 C 99.667969 11.628906 99.816406 12.039062 99.964844 12.46875 C 100.707031 13.984375 100.707031 13.984375 102.46875 14.296875 C 102.96875 14.351562 103.464844 14.402344 103.980469 14.460938 C 102.5 15.238281 101.121094 15.863281 99.527344 16.410156 C 99.105469 16.835938 98.6875 17.265625 98.25 17.707031 C 98.042969 17.0625 97.832031 16.417969 97.617188 15.757812 C 98.039062 15.328125 98.457031 14.902344 98.886719 14.460938 C 99.300781 12.785156 99.300781 12.785156 99.527344 11.210938 Z M 99.527344 11.210938 "/>
<path style=" stroke:none;fill-rule:nonzero;fill:rgb(70.19608%,53.333336%,71.764708%);fill-opacity:1;" d="M 92.519531 7.3125 C 92.734375 7.746094 92.941406 8.167969 93.15625 8.609375 C 93.578125 8.828125 93.996094 9.039062 94.433594 9.261719 C 93.796875 9.691406 93.167969 10.121094 92.519531 10.558594 C 92.054688 12.554688 92.054688 12.554688 91.882812 14.460938 C 90.613281 12.023438 90.613281 12.023438 90.613281 10.558594 C 89.765625 10.34375 88.929688 10.132812 88.0625 9.914062 C 88.683594 9.726562 89.296875 9.539062 89.933594 9.339844 C 91.953125 8.84375 91.953125 8.84375 92.519531 7.3125 Z M 92.519531 7.3125 "/>
<path style=" stroke:none;fill-rule:nonzero;fill:rgb(64.313728%,52.941179%,71.764708%);fill-opacity:1;" d="M 100.800781 4.710938 C 101.636719 4.710938 102.480469 4.710938 103.34375 4.710938 C 103.34375 5.570312 103.34375 6.433594 103.34375 7.3125 C 102.085938 7.746094 100.824219 8.167969 99.527344 8.609375 C 99.945312 7.328125 100.367188 6.039062 100.800781 4.710938 Z M 100.800781 4.710938 "/>
<path style=" stroke:none;fill-rule:nonzero;fill:rgb(46.666667%,16.078432%,49.019608%);fill-opacity:1;" d="M 87.425781 10.558594 C 88.476562 10.558594 89.527344 10.558594 90.613281 10.558594 C 90.613281 11.628906 90.613281 12.703125 90.613281 13.808594 C 89.765625 13.808594 88.929688 13.808594 88.0625 13.808594 C 87.855469 12.734375 87.644531 11.664062 87.425781 10.558594 Z M 87.425781 10.558594 "/>
<path style=" stroke:none;fill-rule:nonzero;fill:rgb(64.313728%,52.549022%,71.764708%);fill-opacity:1;" d="M 102.074219 17.707031 C 102.703125 17.921875 103.335938 18.132812 103.980469 18.355469 C 103.980469 19.214844 103.980469 20.070312 103.980469 20.953125 C 102.929688 20.742188 101.878906 20.527344 100.800781 20.304688 C 101.21875 19.449219 101.636719 18.589844 102.074219 17.707031 Z M 102.074219 17.707031 "/>
<path style=" stroke:none;fill-rule:nonzero;fill:rgb(64.313728%,52.549022%,71.764708%);fill-opacity:1;" d="M 106.53125 11.210938 C 107.582031 11.210938 108.632812 11.210938 109.714844 11.210938 C 109.714844 12.070312 109.714844 12.925781 109.714844 13.808594 C 108.875 14.019531 108.035156 14.234375 107.171875 14.460938 C 106.957031 13.382812 106.75 12.316406 106.53125 11.210938 Z M 106.53125 11.210938 "/>
</g>
</svg>
