<?xml version="1.0" encoding="UTF-8"?>
<svg xmlns="http://www.w3.org/2000/svg" xmlns:xlink="http://www.w3.org/1999/xlink" width="200px" height="41px" viewBox="0 0 199 41" version="1.1">
<g id="surface1">
<path style=" stroke:none;fill-rule:evenodd;fill:rgb(48.235294%,14.901961%,44.705883%);fill-opacity:1;" d="M 32.089844 24.273438 C 32.238281 27.820312 33.933594 29.445312 36.988281 29.445312 C 39.1875 29.445312 40.957031 28.058594 41.316406 26.800781 L 46.152344 26.800781 C 44.609375 31.617188 41.316406 33.648438 36.808594 33.648438 C 30.515625 33.648438 26.609375 29.242188 26.609375 22.929688 C 26.609375 16.820312 30.753906 12.171875 36.808594 12.171875 C 43.601562 12.171875 46.882812 18.007812 46.5 24.269531 Z M 41.003906 20.734375 C 40.5 17.890625 39.308594 16.402344 36.640625 16.402344 C 35.464844 16.332031 34.320312 16.75 33.460938 17.570312 C 32.605469 18.394531 32.105469 19.535156 32.089844 20.734375 Z M 41.003906 20.734375 "/>
<path style=" stroke:none;fill-rule:evenodd;fill:rgb(48.235294%,14.901961%,44.705883%);fill-opacity:1;" d="M 47.042969 12.730469 L 52.25 12.730469 L 52.25 15.566406 L 52.367188 15.566406 C 53.6875 13.441406 55.992188 12.15625 58.464844 12.179688 C 64.296875 12.179688 65.757812 15.53125 65.757812 20.574219 L 65.757812 33.105469 L 60.289062 33.105469 L 60.289062 21.605469 C 60.289062 18.253906 59.3125 16.589844 56.777344 16.589844 C 53.796875 16.589844 52.519531 18.289062 52.519531 22.421875 L 52.519531 33.105469 L 47.042969 33.105469 Z M 47.042969 12.730469 "/>
<path style=" stroke:none;fill-rule:evenodd;fill:rgb(48.235294%,14.901961%,44.705883%);fill-opacity:1;" d="M 88.09375 12.730469 L 93.316406 12.730469 L 93.316406 15.566406 L 93.421875 15.566406 C 94.746094 13.441406 97.046875 12.15625 99.515625 12.179688 C 105.355469 12.179688 106.816406 15.53125 106.816406 20.574219 L 106.816406 33.105469 L 101.34375 33.105469 L 101.34375 21.605469 C 101.34375 18.253906 100.367188 16.589844 97.820312 16.589844 C 94.851562 16.589844 93.578125 18.289062 93.578125 22.421875 L 93.578125 33.105469 L 88.09375 33.105469 Z M 88.09375 12.730469 "/>
<path style=" stroke:none;fill-rule:evenodd;fill:rgb(48.235294%,14.901961%,44.705883%);fill-opacity:1;" d="M 1.75 0 L 1.75 10.839844 L 16.445312 17.265625 L 16.445312 4.730469 Z M 1.75 0 "/>
<path style=" stroke:none;fill-rule:evenodd;fill:rgb(48.235294%,14.901961%,44.705883%);fill-opacity:1;" d="M 9.355469 30.246094 L 16.445312 34.515625 L 16.445312 18.5 L 9.355469 15.304688 Z M 9.355469 30.246094 "/>
<path style=" stroke:none;fill-rule:evenodd;fill:rgb(69.411767%,57.647061%,73.725492%);fill-opacity:1;" d="M 32.359375 0 L 17.65625 4.730469 L 17.65625 17.265625 L 32.359375 10.839844 Z M 32.359375 0 "/>
<path style=" stroke:none;fill-rule:evenodd;fill:rgb(69.411767%,57.647061%,73.725492%);fill-opacity:1;" d="M 17.65625 18.5 L 17.65625 34.519531 L 24.753906 30.246094 L 24.753906 15.304688 Z M 17.65625 18.5 "/>
<path style=" stroke:none;fill-rule:evenodd;fill:rgb(48.235294%,14.901961%,44.705883%);fill-opacity:1;" d="M 76.988281 29.457031 C 80.738281 29.457031 81.859375 26.160156 81.859375 22.933594 C 81.859375 19.722656 80.738281 16.382812 76.988281 16.382812 C 73.230469 16.382812 72.144531 19.683594 72.144531 22.933594 C 72.144531 26.199219 73.273438 29.457031 76.988281 29.457031 Z M 76.988281 12.140625 C 83.289062 12.140625 87.355469 16.40625 87.355469 22.917969 C 87.355469 29.445312 83.289062 33.6875 76.988281 33.6875 C 70.6875 33.6875 66.652344 29.414062 66.652344 22.933594 C 66.652344 16.464844 70.714844 12.15625 76.988281 12.15625 Z M 76.988281 12.140625 "/>
<path style=" stroke:none;fill-rule:evenodd;fill:rgb(69.411767%,57.647061%,73.725492%);fill-opacity:1;" d="M 173.796875 32.761719 L 173.796875 29.765625 C 173.15625 30.820312 172.269531 31.6875 171.214844 32.289062 C 170.191406 32.902344 169.019531 33.222656 167.835938 33.222656 C 166.703125 33.234375 165.582031 32.921875 164.609375 32.339844 C 163.664062 31.765625 162.941406 30.898438 162.523438 29.863281 C 162.019531 28.429688 161.796875 26.914062 161.855469 25.398438 L 161.855469 12.722656 L 166.613281 12.722656 L 166.613281 21.929688 C 166.546875 23.65625 166.632812 25.394531 166.878906 27.117188 C 167.03125 27.707031 167.367188 28.242188 167.832031 28.617188 C 168.339844 29.003906 168.96875 29.210938 169.59375 29.171875 C 170.378906 29.179688 171.148438 28.917969 171.785156 28.433594 C 172.398438 27.964844 172.851562 27.320312 173.09375 26.585938 C 173.335938 25.847656 173.457031 24.035156 173.457031 21.167969 L 173.457031 12.722656 L 178.207031 12.722656 L 178.207031 32.761719 Z M 173.796875 32.761719 "/>
<path style=" stroke:none;fill-rule:evenodd;fill:rgb(69.411767%,57.647061%,73.725492%);fill-opacity:1;" d="M 136.292969 32.761719 L 131.542969 32.761719 L 131.542969 12.722656 L 135.957031 12.722656 L 135.957031 15.5625 C 136.449219 14.558594 137.140625 13.644531 137.972656 12.898438 C 138.582031 12.480469 139.296875 12.253906 140.039062 12.257812 C 141.152344 12.265625 142.246094 12.625 143.160156 13.269531 L 141.6875 17.882812 C 141.058594 17.371094 140.28125 17.066406 139.460938 17.027344 C 138.847656 17 138.242188 17.21875 137.769531 17.628906 C 137.207031 18.253906 136.828125 19.027344 136.679688 19.855469 C 136.398438 20.914062 136.273438 23.148438 136.273438 26.578125 Z M 136.292969 32.761719 "/>
<path style=" stroke:none;fill-rule:evenodd;fill:rgb(69.411767%,57.647061%,73.725492%);fill-opacity:1;" d="M 195.371094 14.992188 C 194.128906 13.28125 192.160156 12.261719 190.066406 12.257812 C 188.910156 12.25 187.777344 12.574219 186.796875 13.207031 C 185.832031 13.820312 185.035156 14.660156 184.46875 15.667969 L 184.46875 12.722656 L 180.027344 12.722656 L 180.027344 40.414062 L 184.785156 40.414062 L 184.785156 30.285156 C 185.488281 31.199219 186.351562 31.960938 187.328125 32.5625 C 188.15625 33 189.089844 33.230469 190.03125 33.222656 C 192.140625 33.214844 194.121094 32.179688 195.363281 30.433594 C 196.832031 28.578125 197.5625 25.972656 197.558594 22.632812 C 197.570312 19.367188 196.835938 16.816406 195.371094 14.992188 Z M 191.625 27.53125 C 190.996094 28.453125 189.96875 29.003906 188.863281 29.003906 C 187.691406 28.996094 186.59375 28.398438 185.9375 27.394531 C 185.132812 26.328125 184.722656 24.65625 184.722656 22.410156 C 184.722656 20.433594 185.113281 18.960938 185.875 17.953125 C 186.539062 17.003906 187.617188 16.445312 188.761719 16.449219 C 189.894531 16.449219 190.957031 17.03125 191.59375 17.992188 C 192.347656 19.003906 192.730469 20.570312 192.730469 22.667969 C 192.742188 24.914062 192.367188 26.539062 191.636719 27.535156 Z M 191.625 27.53125 "/>
<path style=" stroke:none;fill-rule:evenodd;fill:rgb(69.411767%,57.647061%,73.725492%);fill-opacity:1;" d="M 157.847656 15.214844 C 156.167969 13.269531 153.71875 12.179688 151.171875 12.257812 C 149.488281 12.242188 147.835938 12.683594 146.390625 13.5625 C 144.945312 14.464844 143.796875 15.773438 143.082031 17.34375 C 142.328125 18.925781 141.921875 20.675781 141.917969 22.449219 C 141.855469 24.476562 142.257812 26.488281 143.082031 28.324219 C 143.816406 29.875 145.011719 31.152344 146.507812 31.96875 C 147.945312 32.785156 149.566406 33.21875 151.214844 33.214844 C 153.738281 33.265625 156.164062 32.179688 157.8125 30.222656 C 159.597656 28.140625 160.539062 25.453125 160.445312 22.679688 C 160.546875 19.949219 159.625 17.28125 157.847656 15.214844 Z M 154.308594 27.304688 C 153.558594 28.300781 152.410156 28.894531 151.179688 28.894531 C 149.953125 28.894531 148.796875 28.300781 148.058594 27.304688 C 147.207031 26.253906 146.789062 24.730469 146.792969 22.738281 C 146.792969 20.75 147.195312 19.222656 148.058594 18.167969 C 148.796875 17.164062 149.953125 16.582031 151.179688 16.582031 C 152.410156 16.582031 153.558594 17.164062 154.308594 18.167969 C 155.152344 19.21875 155.574219 20.738281 155.574219 22.695312 C 155.574219 24.664062 155.152344 26.253906 154.308594 27.308594 Z M 154.308594 27.304688 "/>
<path style=" stroke:none;fill-rule:evenodd;fill:rgb(69.411767%,57.647061%,73.725492%);fill-opacity:1;" d="M 125.179688 12.722656 L 125.179688 15.527344 C 123.730469 13.355469 121.894531 12.257812 119.671875 12.257812 C 117.566406 12.242188 115.566406 13.222656 114.269531 14.917969 C 112.820312 16.707031 112.089844 19.273438 112.089844 22.636719 C 112.007812 24.984375 112.582031 27.3125 113.75 29.359375 C 115.160156 31.628906 117.074219 32.761719 119.480469 32.761719 C 121.636719 32.761719 123.429688 31.6875 124.863281 29.523438 L 124.863281 32.441406 C 124.90625 33.261719 124.832031 34.089844 124.644531 34.886719 C 124.488281 35.421875 124.15625 35.890625 123.695312 36.21875 C 122.84375 36.691406 121.878906 36.910156 120.902344 36.84375 C 120.148438 36.910156 119.40625 36.707031 118.773438 36.277344 C 118.394531 35.886719 118.167969 35.371094 118.148438 34.824219 L 112.722656 34.097656 L 112.722656 34.738281 C 112.667969 36.425781 113.355469 38.046875 114.605469 39.167969 C 115.875 40.335938 118.027344 40.917969 121.066406 40.917969 C 122.417969 40.949219 123.773438 40.761719 125.066406 40.351562 C 127.066406 39.742188 128.59375 38.101562 129.054688 36.027344 C 129.476562 34.285156 129.652344 32.503906 129.585938 30.71875 L 129.585938 12.722656 Z M 123.75 26.96875 C 123.0625 27.917969 121.96875 28.480469 120.808594 28.484375 C 119.710938 28.480469 118.691406 27.921875 118.074219 26.996094 C 117.335938 26.015625 116.96875 24.449219 116.96875 22.328125 C 116.96875 20.292969 117.335938 18.800781 118.074219 17.785156 C 118.722656 16.84375 119.777344 16.289062 120.898438 16.308594 C 122.054688 16.289062 123.140625 16.863281 123.804688 17.828125 C 124.582031 18.824219 124.957031 20.363281 124.957031 22.4375 C 124.949219 24.441406 124.546875 25.949219 123.75 26.960938 Z M 123.75 26.96875 "/>
</g>
</svg>
