<?xml version="1.0" encoding="UTF-8"?>
<svg xmlns="http://www.w3.org/2000/svg" xmlns:xlink="http://www.w3.org/1999/xlink" width="150px" height="34px" viewBox="0 0 151 34" version="1.1">
<g id="surface1">
<path style=" stroke:none;fill-rule:nonzero;fill:rgb(47.058824%,11.372549%,49.411765%);fill-opacity:1;" d="M 41.167969 12.972656 C 43.019531 14.167969 43.019531 14.167969 44.429688 16.292969 C 44.664062 15.125 44.898438 13.957031 45.136719 12.75 C 47.726562 12.75 50.3125 12.75 52.902344 12.75 C 53.371094 12.515625 53.835938 12.285156 54.316406 12.042969 C 59.308594 11.546875 59.308594 11.546875 62.085938 13.636719 C 63.492188 15.582031 63.492188 15.582031 63.492188 18.417969 C 63.960938 18.417969 64.425781 18.417969 64.910156 18.417969 C 65.054688 17.890625 65.199219 17.367188 65.347656 16.824219 C 66.683594 14.148438 67.867188 13.34375 70.558594 12.042969 C 73.800781 11.574219 76.605469 11.621094 79.648438 12.882812 C 81.351562 14.335938 82.660156 15.898438 83.976562 17.707031 C 84.207031 16.074219 84.441406 14.4375 84.679688 12.75 C 85.417969 12.765625 85.417969 12.765625 86.175781 12.777344 C 86.816406 12.78125 87.460938 12.789062 88.117188 12.792969 C 88.761719 12.800781 89.398438 12.8125 90.058594 12.816406 C 91.75 12.867188 91.75 12.867188 93.152344 12.042969 C 98.140625 11.632812 98.140625 11.632812 100.878906 13.324219 C 103.027344 15.613281 103.125 17.441406 103.105469 20.464844 C 103.101562 21.457031 103.101562 21.457031 103.101562 22.476562 C 103.09375 23.511719 103.09375 23.511719 103.082031 24.570312 C 103.078125 25.269531 103.074219 25.96875 103.074219 26.691406 C 103.0625 28.417969 103.050781 30.148438 103.039062 31.875 C 100.941406 31.875 98.84375 31.875 96.683594 31.875 C 96.449219 27.433594 96.21875 22.992188 95.980469 18.417969 C 92.816406 17.660156 92.816406 17.660156 91.035156 17.707031 C 90.804688 22.382812 90.570312 27.058594 90.328125 31.875 C 88.460938 31.875 86.601562 31.875 84.679688 31.875 C 84.328125 29.417969 84.328125 29.417969 83.976562 26.917969 C 83.714844 27.457031 83.449219 27.996094 83.179688 28.554688 C 81.5 30.96875 80.390625 31.625 77.621094 32.582031 C 73.988281 33.070312 71.371094 33.003906 68.085938 31.300781 C 66.320312 29.75 66.320312 29.75 64.910156 27.625 C 64.675781 29.027344 64.445312 30.429688 64.203125 31.875 C 62.105469 31.875 60.003906 31.875 57.847656 31.875 C 57.804688 30.914062 57.761719 29.949219 57.71875 28.957031 C 57.65625 27.699219 57.597656 26.445312 57.535156 25.191406 C 57.507812 24.554688 57.484375 23.921875 57.453125 23.261719 C 57.425781 22.660156 57.394531 22.054688 57.367188 21.429688 C 57.324219 20.589844 57.324219 20.589844 57.285156 19.734375 C 57.277344 18.40625 57.277344 18.40625 56.433594 17.707031 C 55.257812 17.679688 54.082031 17.679688 52.902344 17.707031 C 52.113281 19.292969 52.0625 20.292969 51.976562 22.054688 C 51.929688 22.910156 51.929688 22.910156 51.882812 23.785156 C 51.859375 24.378906 51.828125 24.976562 51.800781 25.589844 C 51.753906 26.492188 51.753906 26.492188 51.710938 27.410156 C 51.632812 28.898438 51.5625 30.386719 51.492188 31.875 C 49.394531 31.875 47.296875 31.875 45.136719 31.875 C 44.90625 30.9375 44.667969 30.003906 44.429688 29.042969 C 43.878906 29.496094 43.324219 29.949219 42.757812 30.414062 C 39.425781 33.035156 36.566406 33.039062 32.425781 32.582031 C 29.316406 31.050781 27.34375 29.46875 26.070312 26.207031 C 25.59375 22.71875 25.605469 19.523438 27.222656 16.335938 C 30.910156 11.558594 35.757812 10.859375 41.167969 12.972656 Z M 33.839844 17 C 33.375 17.9375 32.910156 18.871094 32.425781 19.832031 C 34.757812 19.832031 37.085938 19.832031 39.488281 19.832031 C 39.023438 18.898438 38.554688 17.960938 38.078125 17 C 36.675781 17 35.28125 17 33.839844 17 Z M 70.601562 18.417969 C 69.625 21.183594 69.542969 23.429688 70.558594 26.207031 C 72.253906 27.667969 72.253906 27.667969 74.089844 28.332031 C 76.332031 27.089844 76.332031 27.089844 78.324219 25.5 C 78.605469 21.664062 78.605469 21.664062 77.527344 18.0625 C 76.199219 16.828125 76.199219 16.828125 74.089844 16.601562 C 71.898438 16.800781 71.898438 16.800781 70.601562 18.417969 Z M 31.722656 24.082031 C 33.363281 27.515625 33.363281 27.515625 35.164062 28.332031 C 37.269531 28.332031 38.398438 27.292969 40.195312 26.207031 C 42.886719 25.722656 42.886719 25.722656 45.136719 25.5 C 45.136719 25.035156 45.136719 24.5625 45.136719 24.082031 C 40.710938 24.082031 36.28125 24.082031 31.722656 24.082031 Z M 31.722656 24.082031 "/>
<path style=" stroke:none;fill-rule:nonzero;fill:rgb(47.058824%,11.372549%,49.411765%);fill-opacity:1;" d="M 116.628906 5.488281 C 117.261719 5.515625 117.890625 5.539062 118.539062 5.566406 C 119.253906 5.617188 119.253906 5.617188 119.984375 5.667969 C 119.984375 7.070312 119.984375 8.46875 119.984375 9.917969 C 118.820312 10.148438 117.65625 10.386719 116.453125 10.625 C 116.222656 11.324219 115.988281 12.027344 115.75 12.75 C 116.394531 12.75 117.039062 12.75 117.707031 12.75 C 120.582031 12.75 123.460938 12.75 126.339844 12.75 C 126.804688 12.515625 127.273438 12.285156 127.753906 12.042969 C 131.394531 11.859375 133.546875 12.101562 136.933594 13.457031 C 137.628906 12.988281 138.328125 12.523438 139.050781 12.042969 C 142.832031 11.734375 145.144531 11.726562 148.230469 14.167969 C 149.132812 15.976562 149.015625 17.257812 149.003906 19.289062 C 149 20.015625 149 20.75 149 21.5 C 148.988281 22.644531 148.988281 22.644531 148.980469 23.816406 C 148.976562 24.589844 148.972656 25.355469 148.96875 26.152344 C 148.960938 28.058594 148.949219 29.96875 148.9375 31.875 C 147.074219 31.875 145.207031 31.875 143.289062 31.875 C 143.242188 30.972656 143.203125 30.066406 143.160156 29.132812 C 143.101562 27.953125 143.039062 26.769531 142.976562 25.589844 C 142.949219 24.992188 142.921875 24.398438 142.894531 23.785156 C 142.867188 23.210938 142.835938 22.640625 142.804688 22.054688 C 142.765625 21.265625 142.765625 21.265625 142.726562 20.457031 C 142.652344 19.0625 142.652344 19.0625 141.875 17.707031 C 140.710938 17.945312 139.546875 18.175781 138.34375 18.417969 C 137.46875 21.046875 137.386719 23.597656 137.242188 26.339844 C 137.199219 27.136719 137.199219 27.136719 137.148438 27.949219 C 137.074219 29.257812 137.003906 30.566406 136.933594 31.875 C 135.066406 31.875 133.207031 31.875 131.285156 31.875 C 130.933594 25.210938 130.933594 25.210938 130.578125 18.417969 C 129.410156 18.179688 128.246094 17.949219 127.046875 17.707031 C 125.949219 18.804688 126.191406 19.90625 126.117188 21.429688 C 126.085938 22.03125 126.058594 22.640625 126.027344 23.261719 C 126 23.898438 125.972656 24.535156 125.941406 25.191406 C 125.914062 25.832031 125.878906 26.46875 125.851562 27.125 C 125.777344 28.710938 125.707031 30.292969 125.632812 31.875 C 123.539062 31.875 121.441406 31.875 119.277344 31.875 C 119.277344 26.96875 119.277344 22.058594 119.277344 17 C 118.113281 17 116.949219 17 115.75 17 C 115.75 21.90625 115.75 26.816406 115.75 31.875 C 113.882812 31.875 112.023438 31.875 110.097656 31.875 C 110.03125 28.59375 109.980469 25.324219 109.941406 22.042969 C 109.933594 20.929688 109.910156 19.816406 109.882812 18.699219 C 109.851562 17.097656 109.835938 15.496094 109.824219 13.890625 C 109.808594 13.394531 109.796875 12.898438 109.777344 12.382812 C 109.777344 9.964844 109.9375 8.714844 111.414062 6.761719 C 113.296875 5.394531 114.332031 5.367188 116.628906 5.488281 Z M 116.628906 5.488281 "/>
<path style=" stroke:none;fill-rule:nonzero;fill:rgb(66.666669%,55.29412%,73.725492%);fill-opacity:1;" d="M 32.425781 0.707031 C 32.425781 4.214844 32.425781 7.71875 32.425781 11.332031 C 28.933594 13.085938 28.933594 13.085938 25.367188 14.875 C 25.382812 15.90625 25.394531 16.941406 25.410156 18.003906 C 25.394531 19.367188 25.382812 20.730469 25.367188 22.089844 C 25.378906 22.773438 25.394531 23.449219 25.40625 24.152344 C 25.304688 29.101562 25.304688 29.101562 23.40625 31.019531 C 19.871094 33.292969 19.871094 33.292969 17.597656 33.292969 C 17.597656 23.941406 17.597656 14.59375 17.597656 4.957031 C 30.3125 0.707031 30.3125 0.707031 32.425781 0.707031 Z M 32.425781 0.707031 "/>
<path style=" stroke:none;fill-rule:nonzero;fill:rgb(47.058824%,11.372549%,49.411765%);fill-opacity:1;" d="M 2.769531 0.707031 C 7.566406 1.984375 12.171875 3.378906 16.894531 4.957031 C 16.894531 14.308594 16.894531 23.65625 16.894531 33.292969 C 15.730469 32.824219 14.566406 32.359375 13.363281 31.875 C 12.394531 31.539062 12.394531 31.539062 11.414062 31.195312 C 9.488281 29.441406 9.535156 28.824219 9.332031 26.285156 C 9.289062 24.921875 9.269531 23.546875 9.257812 22.179688 C 9.242188 21.480469 9.21875 20.78125 9.207031 20.058594 C 9.164062 18.332031 9.140625 16.601562 9.125 14.875 C 5.980469 13.472656 5.980469 13.472656 2.769531 12.042969 C 2.769531 8.300781 2.769531 4.558594 2.769531 0.707031 Z M 2.769531 0.707031 "/>
</g>
</svg>
